<?xml version="1.0" encoding="UTF-8"?>
<!-- Generated by Pixelmator Pro 4.3 -->
<svg viewBox="0 0 1991 1991" xmlns="http://www.w3.org/2000/svg">
    <g id="Limooo">
        <path id="path1" fill="#6a8a3b" stroke="none" d="M 1990 995.5 C 1990 1545.023315 1544.523315 1990.5 995 1990.5 C 445.476685 1990.5 -0 1545.023315 -0 995.5 C -0 445.976685 445.476685 0.5 995 0.5 C 1544.523315 0.5 1990 445.976685 1990 995.5 Z"/>
        <path id="path2" fill="#e1e7c5" stroke="none" d="M 1935.830933 995.5 C 1935.830933 1515.106567 1514.606567 1936.330933 995 1936.330933 C 475.393402 1936.330933 54.169056 1515.106567 54.169056 995.5 C 54.169056 475.893433 475.393402 54.669067 995 54.669067 C 1514.606567 54.669067 1935.830933 475.893433 1935.830933 995.5 Z"/>
        <g id="g1">
            <g id="g2">
                <g id="g3">
                    <path id="path3" fill="#b7c151" stroke="none" d="M 995 915.671875 C 976.18335 915.671875 970.481384 887.161865 957.936951 847.247803 L 772.621765 277.047241 C 745.822388 191.517212 795.42981 158.445679 863.853882 147.611694 C 943.681946 135.067383 1046.317993 135.067383 1126.146118 147.611694 C 1194.57019 158.445679 1244.177734 191.517212 1217.378174 277.047241 L 1032.062988 847.247803 C 1019.518616 887.161865 1013.81665 915.671875 995 915.671875 Z"/>
                </g>
                <g id="g4">
                    <path id="path4" fill="#d3dca0" fill-opacity="0.42" stroke="none" d="M 903.693787 371.61499 C 900.415161 371.991333 892.386719 324.584961 886.576355 273.700195 C 882.402527 237.127441 882.259949 212.979614 885.538574 212.603149 C 888.822937 212.226929 894.120117 235.78186 898.305359 272.354492 C 904.115784 323.239258 906.972412 371.244385 903.693787 371.61499 Z"/>
                    <path id="path5" fill="#d3dca0" fill-opacity="0.42" stroke="none" d="M 1008.719055 368.889404 C 1005.736877 368.707031 1006.341309 319.350464 1009.483032 266.846436 C 1011.741089 229.110596 1015.555725 204.637451 1018.537903 204.820068 C 1021.525696 204.996826 1022.392456 229.743286 1020.13446 267.484985 C 1016.992615 319.983398 1011.706848 369.066284 1008.719055 368.889404 Z"/>
                    <path id="path6" fill="#d3dca0" fill-opacity="0.42" stroke="none" d="M 1103.429321 385.607788 C 1100.441528 385.237183 1104.501343 333.075073 1111.332397 277.748535 C 1116.241699 237.982788 1121.789795 212.335205 1124.783325 212.705811 C 1127.77124 213.076538 1126.916016 239.305542 1122.006348 279.071533 C 1115.175415 334.397949 1106.422974 385.978394 1103.429321 385.607788 Z"/>
                    <path id="path7" fill="#d3dca0" fill-opacity="0.42" stroke="none" d="M 934.980652 540.679443 C 931.650696 541.135742 923.302979 499.459595 917.19043 454.624878 C 912.79425 422.402832 912.54895 401.025879 915.878906 400.575562 C 919.208984 400.119263 924.694275 420.77771 929.084839 453.005493 C 935.197327 497.834717 938.310669 540.229126 934.980652 540.679443 Z"/>
                    <path id="path8" fill="#d3dca0" fill-opacity="0.42" stroke="none" d="M 1032.542114 569.907959 C 1029.616821 569.634277 1031.709473 523.077515 1036.390869 473.658203 C 1039.749268 438.134644 1044.236816 415.184204 1047.161987 415.463379 C 1050.087158 415.737183 1050.189575 439.121094 1046.825439 474.644531 C 1042.149902 524.069458 1035.467041 570.181641 1032.542114 569.907959 Z"/>
                    <path id="path9" fill="#d3dca0" fill-opacity="0.42" stroke="none" d="M 960.896301 721.182129 C 958.2677 721.63269 950.296326 687.859619 943.995544 651.458008 C 939.468201 625.291626 938.578613 607.866333 941.201599 607.415771 C 943.8302 606.959717 948.848022 623.666504 953.375366 649.833008 C 959.676025 686.240356 963.519226 720.726074 960.896301 721.182129 Z"/>
                    <path id="path10" fill="#d3dca0" fill-opacity="0.42" stroke="none" d="M 1031.487183 742.735718 C 1028.790039 742.382324 1030.973999 709.151001 1035.569702 673.998047 C 1038.871216 648.732544 1043.147705 632.527344 1045.850464 632.880981 C 1048.547485 633.240112 1048.518921 649.992676 1045.217651 675.258301 C 1040.621826 710.411255 1034.189819 743.095093 1031.487183 742.735718 Z"/>
                    <path id="path11" fill="#d3dca0" fill-opacity="0.42" stroke="none" d="M 987.513245 839.926514 C 984.40564 839.869385 982.569641 807.390869 983.208313 772.80249 C 983.664368 747.936035 986.401428 731.770752 989.503235 731.827881 C 992.61084 731.884888 994.743408 748.146973 994.287231 773.007813 C 993.648621 807.601807 990.615173 839.983521 987.513245 839.926514 Z"/>
                </g>
            </g>
            <g id="g5">
                <g id="g6">
                    <path id="path12" fill="#b7c151" stroke="none" d="M 1041.921875 930.917725 C 1026.69873 919.857544 1038.843506 893.440918 1052.155762 853.776367 L 1237.388184 283.548828 C 1265.980347 198.601318 1325.552612 201.004272 1387.276733 232.458252 C 1459.232544 269.231323 1542.266724 329.559448 1599.475586 386.629761 C 1648.463989 435.613037 1669.158081 491.5271 1597.203735 544.970215 L 1112.125 897.346558 C 1078.515503 922.264282 1057.144653 941.977905 1041.921875 930.917725 Z"/>
                </g>
                <g id="g7">
                    <path id="path13" fill="#d3dca0" fill-opacity="0.42" stroke="none" d="M 1239.624146 447.335327 C 1236.771973 446.158325 1250.875732 405.588623 1268.298462 363.293213 C 1280.823975 332.889282 1291.231812 313.985352 1294.079346 315.159058 C 1296.934692 316.331543 1291.00293 337.077759 1278.477417 367.481934 C 1261.050049 409.773926 1242.479492 448.507813 1239.624146 447.335327 Z"/>
                    <path id="path14" fill="#d3dca0" fill-opacity="0.42" stroke="none" d="M 1362.189941 406.523926 C 1359.681763 404.863892 1380.336914 369.34314 1404.468384 332.830933 C 1421.800537 306.588623 1435.085938 290.776611 1437.594238 292.436646 C 1440.097656 294.093628 1430.759155 312.505615 1413.414307 338.745605 C 1389.286377 375.253174 1364.693481 408.180908 1362.189941 406.523926 Z"/>
                    <path id="path15" fill="#d3dca0" fill-opacity="0.42" stroke="none" d="M 1377.123169 540.087402 C 1374.411011 537.835083 1400.420776 502.229492 1430.435547 466.136719 C 1452.008423 440.198486 1468.204346 425.056152 1470.916504 427.308594 C 1473.625366 429.565674 1461.681519 448.255493 1440.108643 474.193726 C 1410.09729 510.28186 1379.831909 542.344604 1377.123169 540.087402 Z"/>
                    <path id="path16" fill="#d3dca0" fill-opacity="0.42" stroke="none" d="M 1476.998047 549.598755 C 1474.766968 547.421143 1498.560791 519.55127 1525.812378 491.656372 C 1545.398804 471.605103 1559.924316 460.246094 1562.155151 462.423706 C 1564.385986 464.601318 1553.364014 479.393677 1533.780762 499.44043 C 1506.529297 527.335327 1479.224121 551.772949 1476.998047 549.598755 Z"/>
                    <path id="path17" fill="#d3dca0" fill-opacity="0.42" stroke="none" d="M 1155.41748 635.128662 C 1152.948975 633.899048 1173.696167 587.386719 1197.891724 538.805542 C 1215.287354 503.890991 1228.566162 482.083008 1231.030151 483.309448 C 1233.495361 484.543579 1224.093872 508.28064 1206.703003 543.198608 C 1182.502686 591.776367 1157.88147 636.354858 1155.41748 635.128662 Z"/>
                    <path id="path18" fill="#d3dca0" fill-opacity="0.42" stroke="none" d="M 1294.151001 593.609863 C 1291.866943 592.04895 1314.035156 555.823242 1339.595459 518.488647 C 1357.96936 491.656982 1371.746338 475.391357 1374.030396 476.952271 C 1376.306885 478.514526 1366.124512 497.243896 1347.750732 524.075562 C 1322.185669 561.406616 1296.432007 595.175415 1294.151001 593.609863 Z"/>
                    <path id="path19" fill="#d3dca0" fill-opacity="0.42" stroke="none" d="M 1299.389282 697.17395 C 1297.236816 695.053345 1322.873169 665.646606 1352.020752 636.063477 C 1372.971191 614.804077 1388.322144 602.599976 1390.479248 604.723999 C 1392.631714 606.844482 1380.661621 622.379028 1359.707886 643.643066 C 1330.560303 673.226196 1301.549683 699.293457 1299.389282 697.17395 Z"/>
                    <path id="path20" fill="#d3dca0" fill-opacity="0.42" stroke="none" d="M 1140.927002 742.613403 C 1138.676025 741.210571 1154.942871 711.205933 1174.172729 680.372803 C 1188.000732 658.216675 1198.777954 644.86731 1201.028931 646.270264 C 1203.280029 647.673096 1196.028564 663.231812 1182.205444 685.391113 C 1162.974121 716.216431 1143.177979 744.016235 1140.927002 742.613403 Z"/>
                    <path id="path21" fill="#d3dca0" fill-opacity="0.42" stroke="none" d="M 1204.297119 745.30896 C 1202.268066 743.426025 1223.283325 717.653564 1247.400024 691.745117 C 1264.731812 673.12854 1277.620972 662.469604 1279.654785 664.355957 C 1281.680542 666.243652 1271.968262 679.873291 1254.636475 698.489868 C 1230.519775 724.398193 1206.327515 747.199951 1204.297119 745.30896 Z"/>
                    <path id="path22" fill="#d3dca0" fill-opacity="0.42" stroke="none" d="M 1093.507813 853.231812 C 1091.03894 851.304077 1108.786743 824.567383 1129.789429 797.658081 C 1144.883911 778.318237 1156.670288 767.217529 1159.134644 769.141846 C 1161.603516 771.069458 1153.696289 785.192993 1138.601929 804.532959 C 1117.60376 831.445557 1095.976685 855.159424 1093.507813 853.231812 Z"/>
                </g>
            </g>
            <g id="g8">
                <g id="g9">
                    <path id="path23" fill="#b7c151" stroke="none" d="M 1070.921021 970.831787 C 1065.106445 952.936157 1090.458984 938.703003 1124.543091 914.438477 L 1609.570557 561.991699 C 1682.633057 510.073608 1729.415527 547.033447 1760.863159 608.760742 C 1797.461914 680.805298 1829.178101 778.417969 1841.915894 858.215454 C 1852.756714 926.638428 1836.633179 984.03772 1747.007813 984.980164 L 1147.449341 984.936646 C 1105.612305 985.340271 1076.735596 988.727478 1070.921021 970.831787 Z"/>
                </g>
                <g id="g10">
                    <path id="path24" fill="#d3dca0" fill-opacity="0.42" stroke="none" d="M 1563.643311 698.328003 C 1562.294067 695.558838 1601.639893 673.649536 1644.740845 652.594482 C 1675.718872 637.463013 1696.984619 629.768066 1698.334106 632.537109 C 1699.688965 635.304443 1680.543213 647.346802 1649.564941 662.478394 C 1606.464111 683.533447 1564.998169 701.095337 1563.643311 698.328003 Z"/>
                    <path id="path25" fill="#d3dca0" fill-opacity="0.42" stroke="none" d="M 1636.066528 795.712402 C 1634.940308 792.522949 1672.893921 776.348145 1714.310303 761.77002 C 1744.077393 751.288574 1764.376099 746.965454 1765.502319 750.154663 C 1766.623169 753.345947 1748.085815 762.68457 1718.318604 773.165771 C 1676.897095 787.745728 1637.187378 798.903442 1636.066528 795.712402 Z"/>
                    <path id="path26" fill="#d3dca0" fill-opacity="0.42" stroke="none" d="M 1599.902588 913.198364 C 1599.498901 910.073975 1641.928467 902.157349 1687.508545 896.334717 C 1720.275146 892.151367 1741.953369 891.888428 1742.35144 895.014648 C 1742.755249 898.139038 1721.694214 903.327393 1688.934692 907.514404 C 1643.347534 913.333496 1600.300781 916.324585 1599.902588 913.198364 Z"/>
                    <path id="path27" fill="#d3dca0" fill-opacity="0.42" stroke="none" d="M 1364.864868 833.121582 C 1363.467041 830.074463 1403.435791 808.790283 1447.238403 788.640259 C 1478.727295 774.158203 1500.363281 767.104248 1501.761108 770.151367 C 1503.162598 773.191406 1483.729858 785.033325 1452.240845 799.515503 C 1408.432861 819.666992 1366.262695 836.168945 1364.864868 833.121582 Z"/>
                    <path id="path28" fill="#d3dca0" fill-opacity="0.42" stroke="none" d="M 1369.469727 930.808105 C 1368.848755 928.06604 1415.572998 915.192749 1465.930908 903.758789 C 1502.12915 895.540527 1526.226074 892.333496 1526.852417 895.073608 C 1527.473633 897.815552 1504.355713 905.327148 1468.157593 913.545288 C 1417.799683 924.979248 1370.09082 933.550049 1369.469727 930.808105 Z"/>
                    <path id="path29" fill="#d3dca0" fill-opacity="0.42" stroke="none" d="M 1200.856201 905.111206 C 1199.726563 902.372559 1232.063965 886.571411 1267.491577 872.014771 C 1292.956299 861.55835 1310.444702 856.889282 1311.568848 859.629639 C 1312.698486 862.368164 1296.969849 871.345825 1271.505127 881.802124 C 1236.077515 896.359131 1201.985718 907.849731 1200.856201 905.111206 Z"/>
                    <path id="path30" fill="#d3dca0" fill-opacity="0.42" stroke="none" d="M 1178.82959 961.946289 C 1178.079834 958.58667 1209.325439 948.835938 1243.286377 941.26062 C 1267.697998 935.811157 1284.207642 934.901367 1284.95752 938.260986 C 1285.707275 941.620728 1270.381958 947.817261 1245.968628 953.261475 C 1212.009399 960.842163 1179.57959 965.305786 1178.82959 961.946289 Z"/>
                </g>
            </g>
            <g id="g11">
                <g id="g12">
                    <path id="path31" fill="#b7c151" stroke="none" d="M 1070.921021 1020.168213 C 1076.735596 1002.272522 1105.612305 1005.659729 1147.449341 1006.063354 L 1747.007813 1006.019836 C 1836.633179 1006.96228 1852.756714 1064.361572 1841.915894 1132.784424 C 1829.178101 1212.581909 1797.461914 1310.19458 1760.863159 1382.239258 C 1729.415527 1443.966553 1682.633057 1480.926392 1609.570557 1429.008301 L 1124.543091 1076.561523 C 1090.458984 1052.296875 1065.106445 1038.063965 1070.921021 1020.168213 Z"/>
                </g>
                <g id="g13">
                    <path id="path32" fill="#d3dca0" fill-opacity="0.42" stroke="none" d="M 1616.372925 1067.834717 C 1616.775757 1065.081787 1662.738892 1069.578125 1711.433716 1076.682617 C 1746.430664 1081.788574 1768.940063 1087.279785 1768.537231 1090.032715 C 1768.134399 1092.785645 1744.994263 1091.616089 1709.997192 1086.51001 C 1661.302368 1079.405518 1615.9646 1070.585938 1616.372925 1067.834717 Z"/>
                    <path id="path33" fill="#d3dca0" fill-opacity="0.42" stroke="none" d="M 1559.96521 1150.913818 C 1560.71106 1148.194336 1603.39502 1157.578613 1648.306519 1169.869019 C 1680.585815 1178.708252 1701.052368 1186.611328 1700.306641 1189.330811 C 1699.559082 1192.055664 1677.924072 1188.431519 1645.643066 1179.597534 C 1600.738892 1167.303467 1559.217896 1153.638672 1559.96521 1150.913818 Z"/>
                    <path id="path34" fill="#d3dca0" fill-opacity="0.42" stroke="none" d="M 1591.553223 1266.319336 C 1592.748169 1263.380127 1637.44519 1278.80249 1684.123657 1297.72229 C 1717.679688 1311.323242 1738.62561 1322.511719 1737.430786 1325.450928 C 1736.234131 1328.395508 1713.417358 1321.839355 1679.866821 1308.240234 C 1633.190308 1289.314941 1590.356567 1269.264038 1591.553223 1266.319336 Z"/>
                    <path id="path35" fill="#d3dca0" fill-opacity="0.42" stroke="none" d="M 1526.819214 1302.230713 C 1528.444702 1299.719238 1566.141968 1321.332764 1604.989624 1346.491455 C 1632.910522 1364.574707 1649.835083 1378.341553 1648.209595 1380.853149 C 1646.589478 1383.366455 1627.100098 1373.544556 1599.179443 1355.461426 C 1560.331787 1330.30249 1525.193726 1304.74231 1526.819214 1302.230713 Z"/>
                    <path id="path36" fill="#d3dca0" fill-opacity="0.42" stroke="none" d="M 1413.941895 1071.380371 C 1414.549194 1068.717773 1460.943604 1077.071289 1509.912598 1088.221924 C 1545.113892 1096.242188 1567.590454 1103.569092 1566.981201 1106.237061 C 1566.379517 1108.901367 1542.939697 1105.775879 1507.74353 1097.757324 C 1458.769287 1086.60498 1413.338257 1074.050049 1413.941895 1071.380371 Z"/>
                    <path id="path37" fill="#d3dca0" fill-opacity="0.42" stroke="none" d="M 1408.122192 1176.975586 C 1409.185059 1174.479248 1454.836426 1191.596436 1502.634766 1211.941406 C 1536.98999 1226.569458 1558.565918 1238.070435 1557.499146 1240.559814 C 1556.436279 1243.056152 1533.195313 1235.480713 1498.839966 1220.852661 C 1451.041748 1200.507813 1407.060913 1179.466675 1408.122192 1176.975586 Z"/>
                    <path id="path38" fill="#d3dca0" fill-opacity="0.42" stroke="none" d="M 1253.90564 1040.029541 C 1254.361694 1037.407959 1287.458008 1041.03894 1322.382935 1047.104736 C 1347.483887 1051.465576 1363.493896 1056.367676 1363.03772 1058.98938 C 1362.588623 1061.607422 1345.858276 1060.82373 1320.757324 1056.463135 C 1285.832275 1050.397217 1253.449585 1042.651367 1253.90564 1040.029541 Z"/>
                    <path id="path39" fill="#d3dca0" fill-opacity="0.42" stroke="none" d="M 1268.387085 1117.927246 C 1269.576782 1115.280273 1306.287964 1129.300781 1344.45105 1146.473145 C 1371.87561 1158.813232 1388.832031 1168.939209 1387.636719 1171.584595 C 1386.44873 1174.226318 1367.626831 1168.254517 1340.202271 1155.914307 C 1302.037354 1138.747437 1267.198853 1120.56897 1268.387085 1117.927246 Z"/>
                    <path id="path40" fill="#d3dca0" fill-opacity="0.42" stroke="none" d="M 1137.546021 1054.478394 C 1138.590942 1051.520386 1169.221069 1059.77002 1201.022949 1071.03833 C 1223.878418 1079.135986 1237.961304 1086.739502 1236.917969 1089.692139 C 1235.869385 1092.642822 1220.146606 1089.680542 1197.291016 1081.582764 C 1165.489258 1070.314575 1136.502563 1057.430908 1137.546021 1054.478394 Z"/>
                </g>
            </g>
            <g id="g14">
                <g id="g15">
                    <path id="path41" fill="#b7c151" stroke="none" d="M 1041.921875 1060.082275 C 1057.144653 1049.022217 1078.515503 1068.735596 1112.125 1093.65332 L 1597.203735 1446.029785 C 1669.158081 1499.472778 1648.463989 1555.386841 1599.475586 1604.370239 C 1542.266724 1661.440674 1459.232544 1721.768555 1387.276733 1758.541748 C 1325.552612 1789.995728 1265.980347 1792.398682 1237.388184 1707.45105 L 1052.155762 1137.223633 C 1038.843506 1097.559082 1026.69873 1071.142334 1041.921875 1060.082275 Z"/>
                </g>
                <g id="g16">
                    <path id="path42" fill="#d3dca0" fill-opacity="0.42" stroke="none" d="M 1465.147705 1490.086304 C 1467.404419 1488.157715 1498.964233 1521.506958 1530.732422 1558.69397 C 1553.568481 1585.420166 1566.687622 1604.369751 1564.430908 1606.298218 C 1562.174194 1608.226807 1545.508545 1592.312012 1522.672485 1565.585938 C 1490.904297 1528.398926 1462.894165 1492.019409 1465.147705 1490.086304 Z"/>
                    <path id="path43" fill="#d3dca0" fill-opacity="0.42" stroke="none" d="M 1329.994629 1482.045166 C 1332.655396 1480.168457 1363.388184 1519.305908 1393.935425 1562.630859 C 1415.892212 1593.77356 1428.12085 1615.562012 1425.459961 1617.438843 C 1422.79126 1619.314453 1406.383179 1600.484863 1384.426392 1569.342285 C 1353.87915 1526.017334 1327.330444 1483.917358 1329.994629 1482.045166 Z"/>
                    <path id="path44" fill="#d3dca0" fill-opacity="0.42" stroke="none" d="M 1261.889282 1563.968872 C 1264.33728 1562.740112 1286.031494 1601.184937 1307.112427 1643.21875 C 1322.268799 1673.431274 1330.224854 1694.102173 1327.776978 1695.331055 C 1325.328979 1696.559814 1313.515869 1677.817261 1298.364136 1647.601318 C 1277.283203 1605.567383 1259.441284 1565.197754 1261.889282 1563.968872 Z"/>
                    <path id="path45" fill="#d3dca0" fill-opacity="0.42" stroke="none" d="M 1326.130493 1331.514893 C 1328.565918 1329.308594 1361.612427 1361.929932 1394.813599 1398.576416 C 1418.678467 1424.914307 1432.331055 1443.821777 1429.895508 1446.02832 C 1427.463379 1448.23938 1409.985474 1432.787842 1386.116089 1406.453125 C 1352.915039 1369.806641 1323.703003 1333.722656 1326.130493 1331.514893 Z"/>
                    <path id="path46" fill="#d3dca0" fill-opacity="0.42" stroke="none" d="M 1266.08728 1357.715942 C 1268.39502 1356.109863 1293.738037 1388.605225 1318.838501 1424.617676 C 1336.876587 1450.502197 1346.829346 1468.644043 1344.521606 1470.250244 C 1342.213867 1471.856445 1328.632202 1456.238159 1310.59436 1430.35376 C 1285.497437 1394.345825 1263.779541 1359.322266 1266.08728 1357.715942 Z"/>
                    <path id="path47" fill="#d3dca0" fill-opacity="0.42" stroke="none" d="M 1172.81543 1358.863647 C 1175.520508 1357.377686 1196.714844 1390.963013 1217.055786 1428.030151 C 1231.675537 1454.671387 1239.083496 1473.210205 1236.378296 1474.696411 C 1233.67334 1476.182495 1222.009888 1459.974121 1207.390137 1433.332764 C 1187.049194 1396.265747 1170.105713 1360.353027 1172.81543 1358.863647 Z"/>
                    <path id="path48" fill="#d3dca0" fill-opacity="0.42" stroke="none" d="M 1176.32251 1208.933594 C 1178.569214 1207.14624 1201.494263 1232.433105 1224.059937 1260.892212 C 1240.280273 1281.345337 1249.093872 1296.085938 1246.848633 1297.865234 C 1244.598633 1299.647949 1232.251099 1287.707275 1216.040039 1267.247559 C 1193.46521 1238.795166 1174.07251 1210.716187 1176.32251 1208.933594 Z"/>
                    <path id="path49" fill="#d3dca0" fill-opacity="0.42" stroke="none" d="M 1091.169312 1178.125854 C 1093.849609 1176.925537 1110.403442 1208.159424 1125.822266 1242.487549 C 1136.904419 1267.160278 1142.03125 1284.198975 1139.350952 1285.39917 C 1136.670898 1286.599365 1127.345459 1271.4552 1116.263306 1246.782471 C 1100.844482 1212.454468 1088.492554 1179.330688 1091.169312 1178.125854 Z"/>
                </g>
            </g>
            <g id="g17">
                <g id="g18">
                    <path id="path50" fill="#b7c151" stroke="none" d="M 995 1075.328125 C 1013.81665 1075.328125 1019.518616 1103.838135 1032.062988 1143.752197 L 1217.378174 1713.952759 C 1244.177734 1799.482788 1194.57019 1832.554443 1126.146118 1843.388184 C 1046.317993 1855.932617 943.681946 1855.932617 863.853882 1843.388184 C 795.42981 1832.554443 745.822388 1799.482788 772.621765 1713.952759 L 957.936951 1143.752197 C 970.481384 1103.838135 976.18335 1075.328125 995 1075.328125 Z"/>
                </g>
                <g id="g19">
                    <path id="path51" fill="#d3dca0" fill-opacity="0.42" stroke="none" d="M 1134.02063 1644.941406 C 1137.19104 1644.348389 1148.606323 1691.435547 1158.128784 1742.16626 C 1164.971069 1778.630615 1166.949707 1802.881104 1163.779419 1803.474243 C 1160.603394 1804.061523 1153.652588 1780.757446 1146.810181 1744.293091 C 1137.287964 1693.562378 1130.844604 1645.534424 1134.02063 1644.941406 Z"/>
                    <path id="path52" fill="#d3dca0" fill-opacity="0.42" stroke="none" d="M 1044.824219 1619.521729 C 1048.136963 1619.430664 1051.906128 1661.10083 1053.154785 1705.627808 C 1054.049927 1737.627441 1052.042847 1758.57666 1048.72998 1758.667847 C 1045.417236 1758.759033 1042.235352 1737.963867 1041.334595 1705.964233 C 1040.085815 1661.437256 1041.511353 1619.613037 1044.824219 1619.521729 Z"/>
                    <path id="path53" fill="#d3dca0" fill-opacity="0.42" stroke="none" d="M 940.260681 1661.596924 C 943.322693 1661.693848 944.388977 1703.358398 942.969177 1747.714355 C 941.948547 1779.594238 938.880859 1800.315308 935.824524 1800.212646 C 932.768311 1800.109985 931.034912 1779.24646 932.055542 1747.360718 C 933.475403 1703.004883 937.204468 1661.494263 940.260681 1661.596924 Z"/>
                    <path id="path54" fill="#d3dca0" fill-opacity="0.42" stroke="none" d="M 863.403442 1581.517944 C 866.562378 1582.378906 857.31366 1626.250244 844.792053 1672.328125 C 835.79425 1705.445313 827.440857 1726.377441 824.276306 1725.516357 C 821.117371 1724.655396 824.504333 1702.383301 833.502075 1669.266113 C 846.017944 1623.188232 860.244507 1580.656982 863.403442 1581.517944 Z"/>
                    <path id="path55" fill="#d3dca0" fill-opacity="0.42" stroke="none" d="M 1075.592163 1410.240967 C 1078.557129 1409.802002 1088.302002 1460.150757 1096.222046 1514.217285 C 1101.90686 1553.070679 1103.275513 1578.752441 1100.310303 1579.191528 C 1097.345337 1579.624878 1091.307007 1554.621582 1085.621948 1515.762451 C 1077.701904 1461.696045 1072.62146 1410.674438 1075.592163 1410.240967 Z"/>
                    <path id="path56" fill="#d3dca0" fill-opacity="0.42" stroke="none" d="M 1022.323975 1477.889648 C 1025.203491 1477.724365 1029.862061 1519.126587 1032.416626 1563.43689 C 1034.246826 1595.282593 1033.180664 1616.18042 1030.29541 1616.345825 C 1027.415894 1616.516846 1023.954773 1595.875488 1022.118713 1564.029907 C 1019.569946 1519.725342 1019.438782 1478.060791 1022.323975 1477.889648 Z"/>
                    <path id="path57" fill="#d3dca0" fill-opacity="0.42" stroke="none" d="M 941.652039 1411.660889 C 944.924988 1411.957397 943.693359 1454.950439 939.633484 1500.566528 C 936.714111 1533.358887 932.232361 1554.518921 928.953613 1554.222412 C 925.680725 1553.925903 925.007935 1532.321045 927.927307 1499.528809 C 931.987183 1453.912598 938.373352 1411.370117 941.652039 1411.660889 Z"/>
                    <path id="path58" fill="#d3dca0" fill-opacity="0.42" stroke="none" d="M 1031.162109 1276.933838 C 1034.252563 1276.409302 1042.788574 1312.240723 1049.305786 1350.894653 C 1053.987305 1378.674805 1054.61438 1397.206299 1051.523926 1397.725098 C 1048.433472 1398.244141 1042.953857 1380.539307 1038.266846 1352.753418 C 1031.755127 1314.099609 1028.071655 1277.452759 1031.162109 1276.933838 Z"/>
                    <path id="path59" fill="#d3dca0" fill-opacity="0.42" stroke="none" d="M 975.368042 1281.501221 C 978.338745 1281.524048 980.322998 1322.812256 979.940979 1366.82605 C 979.672974 1398.466309 977.158447 1419.073486 974.187744 1419.050781 C 971.222656 1419.027954 969.061584 1398.369385 969.32959 1366.734863 C 969.711609 1322.715332 972.402954 1281.472656 975.368042 1281.501221 Z"/>
                    <path id="path60" fill="#d3dca0" fill-opacity="0.42" stroke="none" d="M 950.855042 1245.544434 C 953.877075 1245.960693 950.490173 1288.252441 944.343384 1333.018799 C 939.924316 1365.189453 934.667114 1385.8479 931.645081 1385.431641 C 928.622925 1385.015381 929.130432 1363.707031 933.549438 1331.53064 C 939.696228 1286.769775 947.833008 1245.128052 950.855042 1245.544434 Z"/>
                    <path id="path61" fill="#d3dca0" fill-opacity="0.42" stroke="none" d="M 1003.324951 1129.200684 C 1006.289917 1129.126465 1009.580078 1167.021973 1010.594971 1207.506348 C 1011.313416 1236.603516 1009.460266 1255.636963 1006.489563 1255.710938 C 1003.524475 1255.785156 1000.713379 1236.865967 999.983521 1207.768555 C 998.968567 1167.284302 1000.354187 1129.269043 1003.324951 1129.200684 Z"/>
                </g>
            </g>
            <g id="g20">
                <g id="g21">
                    <path id="path62" fill="#b7c151" stroke="none" d="M 948.078247 1060.082275 C 963.301208 1071.142334 951.156433 1097.559082 937.844238 1137.223633 L 752.611877 1707.45105 C 724.019714 1792.398682 664.447388 1789.995728 602.723206 1758.541748 C 530.767578 1721.768555 447.733185 1661.440674 390.524323 1604.370239 C 341.536011 1555.386841 320.841797 1499.472778 392.796295 1446.029785 L 877.874939 1093.65332 C 911.484436 1068.735596 932.855286 1049.022217 948.078247 1060.082275 Z"/>
                </g>
                <g id="g22">
                    <path id="path63" fill="#d3dca0" fill-opacity="0.42" stroke="none" d="M 726.015686 1546.849365 C 728.800415 1548.322876 710.370056 1588.328613 688.387146 1629.77063 C 672.580017 1659.55957 660.086792 1677.822144 657.30658 1676.352051 C 654.525269 1674.873779 662.642395 1654.291748 678.449524 1624.502808 C 700.437073 1583.064087 723.234314 1545.371216 726.015686 1546.849365 Z"/>
                    <path id="path64" fill="#d3dca0" fill-opacity="0.42" stroke="none" d="M 605.294678 1561.858887 C 608.14917 1563.643799 589.430054 1598.527344 567.069153 1634.232422 C 550.993042 1659.900146 538.268188 1675.231689 535.413696 1673.446655 C 532.554626 1671.658447 540.793274 1653.518677 556.864746 1627.847656 C 579.225647 1592.142334 602.435547 1560.070557 605.294678 1561.858887 Z"/>
                    <path id="path65" fill="#d3dca0" fill-opacity="0.42" stroke="none" d="M 582.964417 1429.144531 C 585.28717 1431.515869 556.65448 1463.24231 524.164307 1495.0979 C 500.811707 1517.995117 483.756042 1531.061157 481.42865 1528.686646 C 479.105957 1526.31543 492.508759 1509.516968 515.862671 1486.627808 C 548.352844 1454.772217 580.637024 1426.77002 582.964417 1429.144531 Z"/>
                    <path id="path66" fill="#d3dca0" fill-opacity="0.42" stroke="none" d="M 827.294861 1350.943115 C 829.856995 1352.325439 812.734619 1388.862305 792.324158 1426.675049 C 777.658997 1453.854248 766.079712 1470.490234 763.517578 1469.108032 C 760.955505 1467.72583 768.512146 1448.914307 783.181946 1421.738525 C 803.58783 1383.922363 824.736206 1349.556396 827.294861 1350.943115 Z"/>
                    <path id="path67" fill="#d3dca0" fill-opacity="0.42" stroke="none" d="M 696.195374 1405.711914 C 698.642761 1407.348999 674.596619 1447.517578 646.895508 1488.991699 C 626.985107 1518.801758 612.070007 1536.954102 609.62262 1535.316895 C 607.167297 1533.68103 618.224792 1512.95166 638.139832 1483.144775 C 665.844299 1441.666138 693.740051 1404.075928 696.195374 1405.711914 Z"/>
                    <path id="path68" fill="#d3dca0" fill-opacity="0.42" stroke="none" d="M 697.46875 1296.532227 C 699.639282 1298.715332 668.056396 1333.541992 632.546082 1368.855957 C 607.023132 1394.236084 588.664551 1409.075928 586.492798 1406.884766 C 584.322266 1404.70166 599.255005 1386.428345 624.777954 1361.04834 C 660.296265 1325.733154 695.293701 1294.345703 697.46875 1296.532227 Z"/>
                    <path id="path69" fill="#d3dca0" fill-opacity="0.42" stroke="none" d="M 887.709106 1203.502686 C 889.966736 1204.663818 875.750793 1236.637695 858.693054 1269.768066 C 846.425415 1293.579346 836.648254 1308.190918 834.390625 1307.029785 C 832.131653 1305.86084 838.348816 1289.416992 850.608459 1265.606934 C 867.670837 1232.47998 885.446838 1202.338379 887.709106 1203.502686 Z"/>
                    <path id="path70" fill="#d3dca0" fill-opacity="0.42" stroke="none" d="M 794.681824 1209.827515 C 797.152344 1211.869141 774.196777 1243.56189 747.638611 1275.653687 C 728.550781 1298.724609 714.161621 1312.156006 711.690979 1310.11438 C 709.220459 1308.072754 719.731995 1291.422119 738.816406 1268.355957 C 765.374573 1236.26416 792.211182 1207.785889 794.681824 1209.827515 Z"/>
                    <path id="path71" fill="#d3dca0" fill-opacity="0.42" stroke="none" d="M 925.84375 1086.611084 C 928.260559 1088.26123 908.917236 1120.647217 886.264648 1153.814453 C 869.988464 1177.652466 857.48114 1191.908569 855.06897 1190.261719 C 852.661438 1188.618286 861.382813 1171.773682 877.662354 1147.931152 C 900.311584 1114.768433 923.434937 1084.959595 925.84375 1086.611084 Z"/>
                </g>
            </g>
            <g id="g23">
                <g id="g24">
                    <path id="path72" fill="#b7c151" stroke="none" d="M 919.078979 1020.168213 C 924.893677 1038.063965 899.541016 1052.296875 865.45697 1076.561523 L 380.429474 1429.008301 C 307.367035 1480.926392 260.584473 1443.966553 229.136734 1382.239258 C 192.538101 1310.19458 160.821777 1212.581909 148.083969 1132.784424 C 137.243317 1064.361572 153.366776 1006.96228 242.992218 1006.019836 L 842.55072 1006.063354 C 884.387634 1005.659729 913.264343 1002.272522 919.078979 1020.168213 Z"/>
                </g>
                <g id="g25">
                    <path id="path73" fill="#d3dca0" fill-opacity="0.42" stroke="none" d="M 403.839417 1274.963257 C 405.146332 1278.099854 365.888916 1297.384521 322.905487 1315.313721 C 292.014679 1328.20459 270.830841 1334.140381 269.522186 1330.998169 C 268.21521 1327.861572 287.332214 1316.985596 318.223022 1304.094727 C 361.204712 1286.160156 402.530762 1271.821289 403.839417 1274.963257 Z"/>
                    <path id="path74" fill="#d3dca0" fill-opacity="0.42" stroke="none" d="M 428.660309 1151.444214 C 429.384094 1154.428589 383.472076 1168.123291 333.891785 1180.234009 C 298.252472 1188.936035 274.443085 1192.271484 273.713837 1189.28894 C 272.990021 1186.304565 295.655548 1178.286621 331.29483 1169.584473 C 380.880615 1157.472168 427.93103 1148.46167 428.660309 1151.444214 Z"/>
                    <path id="path75" fill="#d3dca0" fill-opacity="0.42" stroke="none" d="M 325.987152 1080.400146 C 326.486206 1083.301636 287.802673 1092.303467 246.125305 1099.472046 C 216.166061 1104.619873 196.234451 1105.700195 195.735382 1102.798584 C 195.238052 1099.902588 214.382004 1094.257813 244.341339 1089.110107 C 286.024109 1081.939697 325.489807 1077.504028 325.987152 1080.400146 Z"/>
                    <path id="path76" fill="#d3dca0" fill-opacity="0.42" stroke="none" d="M 584.377197 1172.914063 C 585.68866 1176.175049 543.546753 1196.085205 497.500793 1214.5896 C 464.405029 1227.891113 441.786407 1234.005371 440.476807 1230.749756 C 439.167114 1227.494019 459.725769 1216.257568 492.821442 1202.956055 C 538.872803 1184.449707 583.067505 1169.658447 584.377197 1172.914063 Z"/>
                    <path id="path77" fill="#d3dca0" fill-opacity="0.42" stroke="none" d="M 593.737366 1053.219238 C 594.257813 1056.629517 551.461121 1065.88855 505.370697 1072.908203 C 472.247559 1077.950928 450.231537 1078.557373 449.716461 1075.145508 C 449.196014 1071.735352 470.39267 1065.765381 503.515747 1060.722656 C 549.60614 1053.703003 593.22229 1049.807373 593.737366 1053.219238 Z"/>
                    <path id="path78" fill="#d3dca0" fill-opacity="0.42" stroke="none" d="M 725.955566 1101.713501 C 727.073425 1104.102295 692.830383 1122.470947 655.360107 1140.059692 C 628.434509 1152.699463 609.986511 1159.065186 608.868713 1156.676514 C 607.749023 1154.282471 624.431396 1144.161621 651.356873 1131.521973 C 688.827209 1113.933228 724.832214 1099.32666 725.955566 1101.713501 Z"/>
                    <path id="path79" fill="#d3dca0" fill-opacity="0.42" stroke="none" d="M 841.457458 1028.457764 C 842.224854 1031.889648 806.513733 1042.695557 767.778687 1051.35437 C 739.937134 1057.57666 721.175476 1058.936401 720.408203 1055.504517 C 719.635376 1052.074463 737.190186 1045.321289 765.031677 1039.098877 C 803.768433 1030.445557 840.690186 1025.026001 841.457458 1028.457764 Z"/>
                </g>
            </g>
            <g id="g26">
                <g id="g27">
                    <path id="path80" fill="#b7c151" stroke="none" d="M 919.078979 970.831787 C 913.264343 988.727478 884.387634 985.340271 842.55072 984.936646 L 242.992218 984.980164 C 153.366776 984.03772 137.243317 926.638428 148.083969 858.215454 C 160.821777 778.417969 192.538101 680.805298 229.136734 608.760742 C 260.584473 547.033447 307.367035 510.073608 380.429474 561.991699 L 865.45697 914.438477 C 899.541016 938.703003 924.893677 952.936157 919.078979 970.831787 Z"/>
                </g>
                <g id="g28">
                    <path id="path81" fill="#d3dca0" fill-opacity="0.42" stroke="none" d="M 381.129089 928.97229 C 380.794891 932.21521 333.099335 929.895752 282.500397 924.702759 C 246.134216 920.968506 222.67308 915.989502 223.009094 912.741211 C 223.343338 909.498291 247.321152 909.381226 283.687256 913.115479 C 334.286163 918.308594 381.465118 925.723999 381.129089 928.97229 Z"/>
                    <path id="path82" fill="#d3dca0" fill-opacity="0.42" stroke="none" d="M 341.31546 827.387451 C 340.519257 830.354248 296.934723 821.12085 251.125 808.790649 C 218.192947 799.930786 197.346161 791.832397 198.142258 788.865479 C 198.93663 785.904175 221.040985 789.357056 253.97139 798.222168 C 299.788239 810.548828 342.10434 824.424194 341.31546 827.387451 Z"/>
                    <path id="path83" fill="#d3dca0" fill-opacity="0.42" stroke="none" d="M 438.838226 767.452148 C 437.792511 770.080078 401.673737 758.074463 364.031952 743.062012 C 336.972565 732.273438 320.144714 723.172485 321.197571 720.540894 C 322.243378 717.912964 340.713196 722.882935 367.772583 733.671509 C 405.419861 748.685669 439.889435 764.825928 438.838226 767.452148 Z"/>
                    <path id="path84" fill="#d3dca0" fill-opacity="0.42" stroke="none" d="M 401.923096 677.390991 C 400.290283 680.109863 361.516968 659.759644 321.52417 635.763428 C 292.780273 618.516113 275.324799 605.128418 276.95224 602.407593 C 278.586853 599.683228 298.615448 608.786743 327.359314 626.034302 C 367.352173 650.030518 403.55777 674.666626 401.923096 677.390991 Z"/>
                    <path id="path85" fill="#d3dca0" fill-opacity="0.42" stroke="none" d="M 566.666748 939.279053 C 566.330994 942.323486 515.626343 939.116455 461.826263 933.146973 C 423.15329 928.855225 398.195679 923.665649 398.536835 920.623047 C 398.872498 917.578369 424.358215 917.987305 463.025818 922.277344 C 516.831299 928.248535 567.002441 936.234497 566.666748 939.279053 Z"/>
                    <path id="path86" fill="#d3dca0" fill-opacity="0.42" stroke="none" d="M 571.091309 853.476929 C 570.171692 856.085938 521.472168 841.24585 470.292694 823.225586 C 433.510345 810.273071 410.24173 799.774902 411.161377 797.165771 C 412.081024 794.556885 436.791687 800.949219 473.574036 813.901733 C 524.753479 831.921753 572.010986 850.868042 571.091309 853.476929 Z"/>
                    <path id="path87" fill="#d3dca0" fill-opacity="0.42" stroke="none" d="M 638.05603 817.121216 C 636.331665 820.140381 591.113953 797.42627 544.321838 770.66333 C 510.696167 751.427979 490.123932 736.505981 491.848297 733.487061 C 493.572662 730.467896 516.864075 740.637817 550.495178 759.875 C 597.28186 786.635986 639.785828 814.104126 638.05603 817.121216 Z"/>
                    <path id="path88" fill="#d3dca0" fill-opacity="0.42" stroke="none" d="M 720.998047 946.227051 C 720.527649 949.096069 686.50769 945.872314 650.612366 940.02478 C 624.807556 935.819092 608.348022 930.824829 608.81311 927.954224 C 609.28363 925.085449 626.475281 925.575317 652.276428 929.773682 C 688.171753 935.621338 721.463196 943.356567 720.998047 946.227051 Z"/>
                    <path id="path89" fill="#d3dca0" fill-opacity="0.42" stroke="none" d="M 719.21521 875.267334 C 718.163147 878.007202 685.658691 867.997437 651.862305 855.025757 C 627.571106 845.700195 612.55127 837.474487 613.603394 834.734741 C 614.650024 831.993164 631.31781 835.921997 655.609009 845.247559 C 689.405457 858.219116 720.261902 872.525757 719.21521 875.267334 Z"/>
                    <path id="path90" fill="#d3dca0" fill-opacity="0.42" stroke="none" d="M 886.072876 957.679321 C 885.098755 960.714233 847.02533 951.089355 807.236389 938.274902 C 778.638306 929.066772 760.753662 920.671753 761.734985 917.633179 C 762.710876 914.592896 782.135132 918.212158 810.731506 927.425659 C 850.520508 940.240112 887.054138 954.640747 886.072876 957.679321 Z"/>
                </g>
            </g>
            <g id="g29">
                <g id="g30">
                    <path id="path91" fill="#b7c151" stroke="none" d="M 948.078247 930.917725 C 932.855286 941.977905 911.484436 922.264282 877.874939 897.346558 L 392.796295 544.970215 C 320.841797 491.5271 341.536011 435.613037 390.524323 386.629761 C 447.733185 329.559448 530.767578 269.231323 602.723206 232.458252 C 664.447388 201.004272 724.019714 198.601318 752.611877 283.548828 L 937.844238 853.776367 C 951.156433 893.440918 963.301208 919.857544 948.078247 930.917725 Z"/>
                </g>
                <g id="g31">
                    <path id="path92" fill="#d3dca0" fill-opacity="0.42" stroke="none" d="M 519.796875 521.311768 C 517.427246 523.463379 484.386505 490.830566 451.12674 454.219727 C 427.221588 427.904053 413.490692 409.053589 415.861511 406.893921 C 418.23111 404.742432 435.685944 420.210815 459.591095 446.526611 C 492.850861 483.137329 522.167786 519.152344 519.796875 521.311768 Z"/>
                    <path id="path93" fill="#d3dca0" fill-opacity="0.42" stroke="none" d="M 664.945007 530.139893 C 662.379822 531.954346 630.720703 491.551514 599.089233 446.928223 C 576.3573 414.85437 563.539429 392.507324 566.104675 390.692871 C 568.669861 388.87854 585.508179 408.368164 608.240173 440.441772 C 639.868286 485.060547 667.510254 528.325439 664.945007 530.139893 Z"/>
                    <path id="path94" fill="#d3dca0" fill-opacity="0.42" stroke="none" d="M 704.431335 418.749512 C 701.935547 419.893066 682.785095 383.300415 664.442261 343.308594 C 651.258545 314.55957 644.622437 294.910034 647.118225 293.766479 C 649.614014 292.622681 660.168884 310.46814 673.352722 339.217041 C 691.695435 379.208862 706.930359 417.610352 704.431335 418.749512 Z"/>
                    <path id="path95" fill="#d3dca0" fill-opacity="0.42" stroke="none" d="M 698.783142 691.581787 C 696.94989 693.491699 661.996521 662.805298 626.240967 628.4729 C 600.548706 603.800903 585.225769 586.212769 587.059143 584.302856 C 588.900391 582.394165 607.093872 596.987427 632.789429 621.664185 C 668.541748 655.991943 700.615234 689.67981 698.783142 691.581787 Z"/>
                    <path id="path96" fill="#d3dca0" fill-opacity="0.42" stroke="none" d="M 748.783325 577.006714 C 746.11377 578.784302 720.79248 545.378052 696.019287 508.253784 C 678.21344 481.573364 668.694885 462.77771 671.361084 460.995605 C 674.027344 459.213501 687.735291 475.219116 705.544373 501.904297 C 730.322327 539.025146 751.449646 575.224731 748.783325 577.006714 Z"/>
                    <path id="path97" fill="#d3dca0" fill-opacity="0.42" stroke="none" d="M 813.745483 798.5448 C 811.499084 800.691406 784.148193 775.589233 756.861389 747.015137 C 737.250488 726.474243 726.229309 711.39209 728.476929 709.237549 C 730.727844 707.087524 745.288086 718.794922 764.898987 739.33606 C 792.184509 767.918091 815.99646 796.394897 813.745483 798.5448 Z"/>
                    <path id="path98" fill="#d3dca0" fill-opacity="0.42" stroke="none" d="M 852.231384 717.20813 C 849.39917 718.878296 826.641113 685.371704 804.739929 648.233154 C 788.997559 621.540405 780.952393 602.82312 783.779968 601.156372 C 786.607605 599.489746 799.09729 615.583984 814.839661 642.276489 C 836.745422 679.411987 855.05896 715.541382 852.231384 717.20813 Z"/>
                    <path id="path99" fill="#d3dca0" fill-opacity="0.42" stroke="none" d="M 917.451294 896.756836 C 914.973267 898.458496 889.697754 865.716675 864.814758 829.362915 C 846.933289 803.237915 837.221191 784.864746 839.699158 783.163086 C 842.180481 781.465942 855.784607 797.173462 873.675354 823.29187 C 898.558472 859.64563 919.932617 895.059692 917.451294 896.756836 Z"/>
                </g>
            </g>
        </g>
    </g>
</svg>
